<mxfile host="app.diagrams.net" modified="2021-07-19T10:11:02.454Z" agent="5.0 (Windows NT 10.0; Win64; x64) AppleWebKit/537.36 (KHTML, like Gecko) Chrome/91.0.4472.124 Safari/537.36 Edg/91.0.864.67" etag="SVJJ6SUTheQBohBGAZvU" version="14.9.0" type="github">
  <diagram id="hx7kSRPPIi0QOUkbdK9X" name="Page-1">
    <mxGraphModel dx="1422" dy="804" grid="1" gridSize="10" guides="1" tooltips="1" connect="1" arrows="1" fold="1" page="1" pageScale="1" pageWidth="850" pageHeight="1100" math="0" shadow="0">
      <root>
        <mxCell id="0" />
        <mxCell id="1" parent="0" />
        <mxCell id="LPZLyY3ZkloCUkzybGH4-2" value="" style="rounded=0;whiteSpace=wrap;html=1;" vertex="1" parent="1">
          <mxGeometry x="230" y="160" width="570" height="520" as="geometry" />
        </mxCell>
        <mxCell id="LPZLyY3ZkloCUkzybGH4-3" value="" style="rounded=0;whiteSpace=wrap;html=1;" vertex="1" parent="1">
          <mxGeometry x="40" y="160" width="170" height="520" as="geometry" />
        </mxCell>
        <mxCell id="LPZLyY3ZkloCUkzybGH4-4" value="Filters" style="text;html=1;strokeColor=#82b366;fillColor=#d5e8d4;align=center;verticalAlign=middle;whiteSpace=wrap;rounded=0;fontStyle=1" vertex="1" parent="1">
          <mxGeometry x="50" y="170" width="150" height="20" as="geometry" />
        </mxCell>
        <mxCell id="LPZLyY3ZkloCUkzybGH4-5" value="By Open Banking Standards" style="text;html=1;strokeColor=none;fillColor=none;align=left;verticalAlign=middle;whiteSpace=wrap;rounded=0;fontStyle=1" vertex="1" parent="1">
          <mxGeometry x="50" y="200" width="170" height="20" as="geometry" />
        </mxCell>
      </root>
    </mxGraphModel>
  </diagram>
</mxfile>
